<svg width="1200" height="384" fill="none" xmlns="http://www.w3.org/2000/svg"><ellipse cx="447.193" cy="32.26" rx="5.858" ry="6.244" fill="#F8D24E"/><ellipse cx="459.886" cy="23.935" rx="5.858" ry="6.244" fill="#F8D24E"/><ellipse cx="474.532" cy="14.569" rx="5.858" ry="6.244" fill="#F8D24E"/><ellipse cx="488.202" cy="6.244" rx="5.858" ry="6.244" fill="#F8D24E"/><ellipse cx="428.641" cy="54.114" rx="5.858" ry="6.244" fill="#F8D24E"/><ellipse cx="441.335" cy="45.789" rx="5.858" ry="6.244" fill="#F8D24E"/><ellipse cx="455.98" cy="36.423" rx="5.858" ry="6.244" fill="#F8D24E"/><ellipse cx="469.65" cy="28.098" rx="5.858" ry="6.244" fill="#F8D24E"/><ellipse cx="400.325" cy="55.154" rx="5.858" ry="6.244" fill="#F8D24E"/><ellipse cx="413.019" cy="46.829" rx="5.858" ry="6.244" fill="#F8D24E"/><ellipse cx="427.665" cy="37.463" rx="5.858" ry="6.244" fill="#F8D24E"/><ellipse cx="441.335" cy="29.138" rx="5.858" ry="6.244" fill="#F8D24E"/><ellipse cx="384.703" cy="79.089" rx="5.858" ry="6.244" fill="#F8D24E"/><ellipse cx="397.396" cy="70.764" rx="5.858" ry="6.244" fill="#F8D24E"/><ellipse cx="412.042" cy="61.398" rx="5.858" ry="6.244" fill="#F8D24E"/><ellipse cx="425.712" cy="53.073" rx="5.858" ry="6.244" fill="#F8D24E"/><ellipse cx="372.986" cy="100.943" rx="5.858" ry="6.244" fill="#F8D24E"/><ellipse cx="385.679" cy="92.618" rx="5.858" ry="6.244" fill="#F8D24E"/><ellipse cx="400.325" cy="83.252" rx="5.858" ry="6.244" fill="#F8D24E"/><ellipse cx="413.995" cy="74.927" rx="5.858" ry="6.244" fill="#F8D24E"/><ellipse rx="5.858" ry="6.244" transform="matrix(1 .00156 -.00137 1 364.208 122.806)" fill="#F8D24E"/><ellipse rx="5.858" ry="6.244" transform="matrix(1 .00156 -.00137 1 376.912 114.5)" fill="#F8D24E"/><ellipse rx="5.858" ry="6.244" transform="matrix(1 .00156 -.00137 1 391.572 105.158)" fill="#F8D24E"/><ellipse rx="5.858" ry="6.244" transform="matrix(1 .00156 -.00137 1 405.253 96.854)" fill="#F8D24E"/><ellipse rx="5.858" ry="6.244" transform="matrix(1 .00156 -.00137 1 240.228 160.312)" fill="#F8D24E"/><ellipse rx="5.858" ry="6.244" transform="matrix(1 .00156 -.00137 1 253.909 152.008)" fill="#F8D24E"/><ellipse rx="5.858" ry="6.244" transform="matrix(1 .00156 -.00137 1 325.151 132.172)" fill="#F8D24E"/><ellipse rx="5.858" ry="6.244" transform="matrix(1 .00156 -.00137 1 337.856 123.866)" fill="#F8D24E"/><ellipse rx="5.858" ry="6.244" transform="matrix(1 .00156 -.00137 1 352.514 114.523)" fill="#F8D24E"/><ellipse rx="5.858" ry="6.244" transform="matrix(1 .00156 -.00137 1 366.196 106.219)" fill="#F8D24E"/><ellipse cx="241.171" cy="141.529" rx="5.858" ry="6.244" fill="#F8D24E"/><ellipse cx="254.841" cy="133.203" rx="5.858" ry="6.244" fill="#F8D24E"/><ellipse cx="273.393" cy="123.837" rx="5.858" ry="6.244" fill="#F8D24E"/><ellipse cx="286.086" cy="115.512" rx="5.858" ry="6.244" fill="#F8D24E"/><ellipse cx="300.732" cy="106.146" rx="5.858" ry="6.244" fill="#F8D24E"/><ellipse cx="314.402" cy="97.821" rx="5.858" ry="6.244" fill="#F8D24E"/><ellipse cx="298.779" cy="136.325" rx="5.858" ry="6.244" fill="#F8D24E"/><ellipse cx="311.473" cy="128" rx="5.858" ry="6.244" fill="#F8D24E"/><ellipse cx="326.119" cy="118.634" rx="5.858" ry="6.244" fill="#F8D24E"/><ellipse cx="339.789" cy="110.309" rx="5.858" ry="6.244" fill="#F8D24E"/><ellipse cx="300.732" cy="119.675" rx="5.858" ry="6.244" fill="#F8D24E"/><ellipse cx="313.426" cy="111.35" rx="5.858" ry="6.244" fill="#F8D24E"/><ellipse cx="328.072" cy="101.984" rx="5.858" ry="6.244" fill="#F8D24E"/><ellipse cx="341.741" cy="93.659" rx="5.858" ry="6.244" fill="#F8D24E"/><ellipse cx="247.03" cy="125.919" rx="5.858" ry="6.244" fill="#F8D24E"/><ellipse cx="259.723" cy="117.594" rx="5.858" ry="6.244" fill="#F8D24E"/><ellipse cx="274.37" cy="108.228" rx="5.858" ry="6.244" fill="#F8D24E"/><ellipse cx="288.039" cy="99.902" rx="5.858" ry="6.244" fill="#F8D24E"/><ellipse cx="5.858" cy="357.984" rx="5.858" ry="6.244" fill="#F8D24E"/><ellipse cx="18.551" cy="349.658" rx="5.858" ry="6.244" fill="#F8D24E"/><ellipse cx="33.198" cy="340.293" rx="5.858" ry="6.244" fill="#F8D24E"/><ellipse cx="46.867" cy="331.968" rx="5.858" ry="6.244" fill="#F8D24E"/><ellipse cx="80.065" cy="361.106" rx="5.858" ry="6.244" fill="#F8D24E"/><ellipse cx="92.758" cy="352.781" rx="5.858" ry="6.244" fill="#F8D24E"/><ellipse cx="107.404" cy="343.415" rx="5.858" ry="6.244" fill="#F8D24E"/><ellipse cx="121.074" cy="335.089" rx="5.858" ry="6.244" fill="#F8D24E"/><ellipse cx="110.334" cy="356.943" rx="5.858" ry="6.244" fill="#F8D24E"/><ellipse cx="123.027" cy="348.618" rx="5.858" ry="6.244" fill="#F8D24E"/><ellipse cx="137.673" cy="339.252" rx="5.858" ry="6.244" fill="#F8D24E"/><ellipse cx="151.343" cy="330.927" rx="5.858" ry="6.244" fill="#F8D24E"/><ellipse cx="165.989" cy="318.439" rx="5.858" ry="6.244" fill="#F8D24E"/><ellipse cx="134.744" cy="325.724" rx="5.858" ry="6.244" fill="#F8D24E"/><ellipse cx="1024.25" cy="376.177" rx="5.858" ry="6.239" fill="#F8D24E"/><ellipse cx="1036.94" cy="367.859" rx="5.858" ry="6.239" fill="#F8D24E"/><ellipse cx="1051.59" cy="358.501" rx="5.858" ry="6.239" fill="#F8D24E"/><ellipse cx="1065.26" cy="350.182" rx="5.858" ry="6.239" fill="#F8D24E"/><ellipse cx="1057.44" cy="372.018" rx="5.858" ry="6.239" fill="#F8D24E"/><ellipse cx="1070.14" cy="363.7" rx="5.858" ry="6.239" fill="#F8D24E"/><ellipse cx="1084.78" cy="354.342" rx="5.858" ry="6.239" fill="#F8D24E"/><ellipse cx="1098.45" cy="346.023" rx="5.858" ry="6.239" fill="#F8D24E"/><ellipse cx="1085.76" cy="368.899" rx="5.858" ry="6.239" fill="#F8D24E"/><ellipse cx="1098.45" cy="360.581" rx="5.858" ry="6.239" fill="#F8D24E"/><ellipse cx="1113.1" cy="351.222" rx="5.858" ry="6.239" fill="#F8D24E"/><ellipse cx="1126.77" cy="342.904" rx="5.858" ry="6.239" fill="#F8D24E"/><ellipse cx="1113.1" cy="364.74" rx="5.858" ry="6.239" fill="#F8D24E"/><ellipse cx="1125.79" cy="356.421" rx="5.858" ry="6.239" fill="#F8D24E"/><ellipse cx="1140.44" cy="347.063" rx="5.858" ry="6.239" fill="#F8D24E"/><ellipse cx="1154.11" cy="338.745" rx="5.858" ry="6.239" fill="#F8D24E"/><ellipse cx="1121.89" cy="376.177" rx="5.858" ry="6.239" fill="#F8D24E"/><ellipse cx="1134.58" cy="367.859" rx="5.858" ry="6.239" fill="#F8D24E"/><ellipse cx="1152.16" cy="377.217" rx="5.858" ry="6.239" fill="#F8D24E"/><ellipse cx="1149.23" cy="358.501" rx="5.858" ry="6.239" fill="#F8D24E"/><ellipse cx="1166.8" cy="367.859" rx="5.858" ry="6.239" fill="#F8D24E"/><ellipse cx="1180.47" cy="377.217" rx="5.858" ry="6.239" fill="#F8D24E"/><ellipse cx="1162.9" cy="350.182" rx="5.858" ry="6.239" fill="#F8D24E"/><ellipse cx="1180.47" cy="359.541" rx="5.858" ry="6.239" fill="#F8D24E"/><ellipse cx="1194.14" cy="368.899" rx="5.858" ry="6.239" fill="#F8D24E"/><ellipse cx="964.687" cy="307.551" rx="5.858" ry="6.239" fill="#F8D24E"/><ellipse cx="977.38" cy="299.232" rx="5.858" ry="6.239" fill="#F8D24E"/><ellipse cx="992.026" cy="289.874" rx="5.858" ry="6.239" fill="#F8D24E"/><ellipse cx="1005.7" cy="281.556" rx="5.858" ry="6.239" fill="#F8D24E"/><ellipse cx="940.276" cy="306.511" rx="5.858" ry="6.239" fill="#F8D24E"/><ellipse cx="952.97" cy="298.193" rx="5.858" ry="6.239" fill="#F8D24E"/><ellipse cx="967.616" cy="288.834" rx="5.858" ry="6.239" fill="#F8D24E"/><ellipse cx="981.285" cy="280.516" rx="5.858" ry="6.239" fill="#F8D24E"/><ellipse cx="994.956" cy="376.177" rx="5.858" ry="6.239" fill="#F8D24E"/><ellipse cx="1007.65" cy="367.859" rx="5.858" ry="6.239" fill="#F8D24E"/><ellipse cx="1022.29" cy="358.501" rx="5.858" ry="6.239" fill="#F8D24E"/><ellipse cx="1035.96" cy="350.182" rx="5.858" ry="6.239" fill="#F8D24E"/><ellipse cx="979.333" cy="369.938" rx="5.858" ry="6.239" fill="#F8D24E"/><ellipse cx="992.026" cy="361.62" rx="5.858" ry="6.239" fill="#F8D24E"/><ellipse cx="1006.67" cy="352.262" rx="5.858" ry="6.239" fill="#F8D24E"/><ellipse cx="1020.34" cy="343.944" rx="5.858" ry="6.239" fill="#F8D24E"/><ellipse cx="985.191" cy="348.103" rx="5.858" ry="6.239" fill="#F8D24E"/><ellipse cx="997.885" cy="339.785" rx="5.858" ry="6.239" fill="#F8D24E"/><ellipse cx="1012.53" cy="330.426" rx="5.858" ry="6.239" fill="#F8D24E"/><ellipse cx="1026.2" cy="322.108" rx="5.858" ry="6.239" fill="#F8D24E"/><ellipse rx="5.867" ry="6.23" transform="matrix(.98693 -.16112 .14249 .9898 680.19 303.304)" fill="#F8D24E"/><ellipse rx="5.867" ry="6.23" transform="matrix(.98693 -.16112 .14249 .9898 691.553 293.034)" fill="#F8D24E"/><ellipse rx="5.867" ry="6.23" transform="matrix(.98693 -.16112 .14249 .9898 704.699 281.42)" fill="#F8D24E"/><ellipse rx="5.867" ry="6.23" transform="matrix(.98693 -.16112 .14249 .9898 717.027 270.992)" fill="#F8D24E"/><ellipse cx="985.191" cy="311.71" rx="5.858" ry="6.239" fill="#F8D24E"/><ellipse cx="997.885" cy="303.391" rx="5.858" ry="6.239" fill="#F8D24E"/><ellipse cx="1012.53" cy="294.033" rx="5.858" ry="6.239" fill="#F8D24E"/><ellipse cx="1026.2" cy="285.715" rx="5.858" ry="6.239" fill="#F8D24E"/><ellipse cx="982.262" cy="331.466" rx="5.858" ry="6.239" fill="#F8D24E"/><ellipse cx="994.956" cy="323.147" rx="5.858" ry="6.239" fill="#F8D24E"/><ellipse cx="1009.6" cy="313.789" rx="5.858" ry="6.239" fill="#F8D24E"/><ellipse cx="1023.27" cy="305.471" rx="5.858" ry="6.239" fill="#F8D24E"/><ellipse cx="920.749" cy="301.312" rx="5.858" ry="6.239" fill="#F8D24E"/><ellipse cx="933.442" cy="292.993" rx="5.858" ry="6.239" fill="#F8D24E"/><ellipse cx="948.088" cy="283.635" rx="5.858" ry="6.239" fill="#F8D24E"/><path d="M947.112 307.55c3.235 0 5.858-2.793 5.858-6.238 0-3.446-2.623-6.239-5.858-6.239-3.236 0-5.859 2.793-5.859 6.239 0 3.445 2.623 6.238 5.859 6.238Z" fill="#F8D24E"/><ellipse cx="52.726" cy="360.065" rx="5.858" ry="6.244" fill="#F8D24E"/><ellipse cx="65.419" cy="351.74" rx="5.858" ry="6.244" fill="#F8D24E"/><ellipse cx="80.065" cy="342.374" rx="5.858" ry="6.244" fill="#F8D24E"/><ellipse cx="93.735" cy="334.049" rx="5.858" ry="6.244" fill="#F8D24E"/><ellipse cx="28.316" cy="359.024" rx="5.858" ry="6.244" fill="#F8D24E"/><ellipse cx="41.009" cy="350.699" rx="5.858" ry="6.244" fill="#F8D24E"/><ellipse cx="55.655" cy="341.333" rx="5.858" ry="6.244" fill="#F8D24E"/><ellipse cx="69.324" cy="333.008" rx="5.858" ry="6.244" fill="#F8D24E"/><ellipse cx="447.193" cy="56.195" rx="5.858" ry="6.244" fill="#F8D24E"/><ellipse cx="459.886" cy="47.87" rx="5.858" ry="6.244" fill="#F8D24E"/><ellipse cx="474.532" cy="38.504" rx="5.858" ry="6.244" fill="#F8D24E"/><ellipse cx="488.202" cy="30.179" rx="5.858" ry="6.244" fill="#F8D24E"/><ellipse cx="445.24" cy="98.862" rx="5.858" ry="6.244" fill="#F8D24E"/><ellipse cx="457.933" cy="90.537" rx="5.858" ry="6.244" fill="#F8D24E"/><ellipse cx="472.58" cy="81.17" rx="5.858" ry="6.244" fill="#F8D24E"/><ellipse cx="486.249" cy="72.845" rx="5.858" ry="6.244" fill="#F8D24E"/><ellipse cx="448.169" cy="77.008" rx="5.858" ry="6.244" fill="#F8D24E"/><ellipse cx="460.862" cy="68.683" rx="5.858" ry="6.244" fill="#F8D24E"/><ellipse cx="475.509" cy="59.317" rx="5.858" ry="6.244" fill="#F8D24E"/><ellipse cx="489.178" cy="50.992" rx="5.858" ry="6.244" fill="#F8D24E"/><ellipse cx="446.216" cy="119.675" rx="5.858" ry="6.244" fill="#F8D24E"/><ellipse cx="458.91" cy="111.35" rx="5.858" ry="6.244" fill="#F8D24E"/><ellipse cx="473.556" cy="101.984" rx="5.858" ry="6.244" fill="#F8D24E"/><ellipse cx="487.225" cy="93.659" rx="5.858" ry="6.244" fill="#F8D24E"/><ellipse cx="452.075" cy="134.244" rx="5.858" ry="6.244" fill="#F8D24E"/><ellipse cx="464.768" cy="125.919" rx="5.858" ry="6.244" fill="#F8D24E"/><ellipse cx="479.414" cy="116.553" rx="5.858" ry="6.244" fill="#F8D24E"/><ellipse cx="493.084" cy="108.228" rx="5.858" ry="6.244" fill="#F8D24E"/><ellipse cx="464.768" cy="145.691" rx="5.858" ry="6.244" fill="#F8D24E"/><ellipse cx="477.461" cy="137.366" rx="5.858" ry="6.244" fill="#F8D24E"/><ellipse cx="492.107" cy="128" rx="5.858" ry="6.244" fill="#F8D24E"/><ellipse cx="505.777" cy="119.675" rx="5.858" ry="6.244" fill="#F8D24E"/><ellipse cx="481.367" cy="155.057" rx="5.858" ry="6.244" fill="#F8D24E"/><ellipse cx="494.06" cy="146.732" rx="5.858" ry="6.244" fill="#F8D24E"/><ellipse cx="508.706" cy="137.366" rx="5.858" ry="6.244" fill="#F8D24E"/><ellipse cx="522.376" cy="129.041" rx="5.858" ry="6.244" fill="#F8D24E"/><ellipse cx="500.895" cy="157.138" rx="5.858" ry="6.244" fill="#F8D24E"/><ellipse cx="513.588" cy="148.813" rx="5.858" ry="6.244" fill="#F8D24E"/><ellipse cx="528.234" cy="139.447" rx="5.858" ry="6.244" fill="#F8D24E"/><ellipse cx="541.904" cy="131.122" rx="5.858" ry="6.244" fill="#F8D24E"/><ellipse cx="520.423" cy="161.301" rx="5.858" ry="6.244" fill="#F8D24E"/><ellipse cx="533.117" cy="152.975" rx="5.858" ry="6.244" fill="#F8D24E"/><ellipse cx="547.763" cy="143.61" rx="5.858" ry="6.244" fill="#F8D24E"/><ellipse cx="561.433" cy="135.285" rx="5.858" ry="6.244" fill="#F8D24E"/><ellipse cx="515.542" cy="181.073" rx="5.858" ry="6.244" fill="#F8D24E"/><ellipse cx="528.234" cy="172.748" rx="5.858" ry="6.244" fill="#F8D24E"/><ellipse cx="542.88" cy="163.382" rx="5.858" ry="6.244" fill="#F8D24E"/><ellipse cx="556.55" cy="155.057" rx="5.858" ry="6.244" fill="#F8D24E"/><ellipse cx="513.588" cy="199.805" rx="5.858" ry="6.244" fill="#F8D24E"/><ellipse cx="526.282" cy="191.479" rx="5.858" ry="6.244" fill="#F8D24E"/><ellipse cx="540.928" cy="182.114" rx="5.858" ry="6.244" fill="#F8D24E"/><ellipse cx="554.597" cy="173.789" rx="5.858" ry="6.244" fill="#F8D24E"/><ellipse cx="506.753" cy="223.74" rx="5.858" ry="6.244" fill="#F8D24E"/><ellipse cx="519.447" cy="215.415" rx="5.858" ry="6.244" fill="#F8D24E"/><ellipse cx="534.093" cy="206.049" rx="5.858" ry="6.244" fill="#F8D24E"/><ellipse cx="547.763" cy="197.724" rx="5.858" ry="6.244" fill="#F8D24E"/><ellipse cx="503.824" cy="244.553" rx="5.858" ry="6.244" fill="#F8D24E"/><ellipse cx="516.517" cy="236.228" rx="5.858" ry="6.244" fill="#F8D24E"/><ellipse cx="531.163" cy="226.862" rx="5.858" ry="6.244" fill="#F8D24E"/><ellipse cx="544.833" cy="218.536" rx="5.858" ry="6.244" fill="#F8D24E"/><ellipse cx="499.918" cy="266.406" rx="5.858" ry="6.244" fill="#F8D24E"/><ellipse cx="512.612" cy="258.081" rx="5.858" ry="6.244" fill="#F8D24E"/><ellipse cx="527.258" cy="248.716" rx="5.858" ry="6.244" fill="#F8D24E"/><ellipse cx="540.928" cy="240.39" rx="5.858" ry="6.244" fill="#F8D24E"/><ellipse cx="497.965" cy="284.098" rx="5.858" ry="6.244" fill="#F8D24E"/><ellipse cx="510.659" cy="275.772" rx="5.858" ry="6.244" fill="#F8D24E"/><ellipse cx="525.305" cy="266.406" rx="5.858" ry="6.244" fill="#F8D24E"/><ellipse cx="538.975" cy="258.081" rx="5.858" ry="6.244" fill="#F8D24E"/><ellipse cx="496.013" cy="302.829" rx="5.858" ry="6.244" fill="#F8D24E"/><ellipse cx="508.707" cy="294.504" rx="5.858" ry="6.244" fill="#F8D24E"/><ellipse cx="523.353" cy="285.138" rx="5.858" ry="6.244" fill="#F8D24E"/><ellipse cx="537.022" cy="276.813" rx="5.858" ry="6.244" fill="#F8D24E"/><ellipse cx="501.871" cy="318.439" rx="5.858" ry="6.244" fill="#F8D24E"/><ellipse cx="514.564" cy="310.114" rx="5.858" ry="6.244" fill="#F8D24E"/><ellipse cx="529.21" cy="300.748" rx="5.858" ry="6.244" fill="#F8D24E"/><ellipse cx="542.88" cy="292.423" rx="5.858" ry="6.244" fill="#F8D24E"/><ellipse cx="516.518" cy="326.764" rx="5.858" ry="6.244" fill="#F8D24E"/><ellipse cx="529.211" cy="318.439" rx="5.858" ry="6.244" fill="#F8D24E"/><ellipse cx="543.857" cy="309.073" rx="5.858" ry="6.244" fill="#F8D24E"/><ellipse cx="557.526" cy="300.748" rx="5.858" ry="6.244" fill="#F8D24E"/><ellipse cx="533.117" cy="331.967" rx="5.858" ry="6.244" fill="#F8D24E"/><ellipse cx="545.81" cy="323.642" rx="5.858" ry="6.244" fill="#F8D24E"/><ellipse cx="560.456" cy="314.276" rx="5.858" ry="6.244" fill="#F8D24E"/><ellipse cx="574.125" cy="305.951" rx="5.858" ry="6.244" fill="#F8D24E"/><ellipse cx="554.597" cy="333.008" rx="5.858" ry="6.244" fill="#F8D24E"/><ellipse cx="567.291" cy="324.683" rx="5.858" ry="6.244" fill="#F8D24E"/><ellipse cx="581.937" cy="315.317" rx="5.858" ry="6.244" fill="#F8D24E"/><ellipse cx="595.606" cy="306.992" rx="5.858" ry="6.244" fill="#F8D24E"/><ellipse cx="579.984" cy="333.008" rx="5.858" ry="6.244" fill="#F8D24E"/><ellipse cx="592.677" cy="324.683" rx="5.858" ry="6.244" fill="#F8D24E"/><ellipse cx="607.323" cy="315.317" rx="5.858" ry="6.244" fill="#F8D24E"/><ellipse cx="620.993" cy="306.992" rx="5.858" ry="6.244" fill="#F8D24E"/><ellipse cx="601.464" cy="331.967" rx="5.858" ry="6.244" fill="#F8D24E"/><ellipse cx="614.157" cy="323.642" rx="5.858" ry="6.244" fill="#F8D24E"/><ellipse cx="628.804" cy="314.276" rx="5.858" ry="6.244" fill="#F8D24E"/><ellipse cx="642.473" cy="305.951" rx="5.858" ry="6.244" fill="#F8D24E"/><ellipse cx="625.875" cy="330.927" rx="5.858" ry="6.244" fill="#F8D24E"/><ellipse cx="638.568" cy="322.602" rx="5.858" ry="6.244" fill="#F8D24E"/><ellipse cx="653.213" cy="313.236" rx="5.858" ry="6.244" fill="#F8D24E"/><ellipse cx="666.883" cy="304.911" rx="5.858" ry="6.244" fill="#F8D24E"/><ellipse cx="648.332" cy="303.87" rx="5.858" ry="6.244" fill="#F8D24E"/><ellipse cx="661.025" cy="295.545" rx="5.858" ry="6.244" fill="#F8D24E"/><ellipse cx="675.671" cy="286.179" rx="5.858" ry="6.244" fill="#F8D24E"/><ellipse cx="689.341" cy="277.854" rx="5.858" ry="6.244" fill="#F8D24E"/></svg>